<svg version="1.2" xmlns="http://www.w3.org/2000/svg" viewBox="0 0 424 424" width="400" height="400"><defs><linearGradient id="P" gradientUnits="userSpaceOnUse"/><linearGradient id="g1" x2="1" href="#P" gradientTransform="matrix(0,455.678,-183.278,0,587.205,-20.45)"><stop stop-color="#cbdb46"/><stop offset="1" stop-color="#013e1f"/></linearGradient><linearGradient id="g2" x2="1" href="#P" gradientTransform="matrix(0,455.671,-291.168,0,603.669,-20.448)"><stop stop-color="#cbdb46"/><stop offset="1" stop-color="#013e1f"/></linearGradient><linearGradient id="g3" x2="1" href="#P" gradientTransform="matrix(0,455.678,-333.364,0,442.439,-20.45)"><stop stop-color="#cbdb46"/><stop offset="1" stop-color="#013e1f"/></linearGradient></defs><style>.a{fill:url(#g1)}.b{fill:url(#g2)}.c{fill:url(#g3)}</style><g style="mix-blend-mode:saturation"><path class="a" d="m159 405.6c-178.3-116.6-128.6-359.1-129.3-394-35.9 87.2-28.9 177.1-28.9 200.6 0 100.2 69.6 183.9 162.9 205.9-1.5-3.7-4.1-10.5-4.7-12.5z"/><path class="b" d="m328 35.2c10 139.7-186.7 236.6-147.3 359.3 54.2-44 136.7-121.2 160.5-200.5-12.1 51.7-45.9 143.3-139.8 229.5 121.6 6.1 222.4-90.7 222.4-211.3 0-74.1-38.2-139.2-95.8-177z"/><path class="c" d="m212.3 0.7c-43.9 0-83.2 19.9-105.3 32.6-34.4-21.7-52.7-21.7-67.5-25.5 13 14.9 162.4 91 121.1 196-20.3 51.6-15 102.4-14.9 136.4-62.8-78.9-74.1-150.3-74.1-150.3-1.6 76.9 50.6 155.8 81.6 194.8-8.6-180.9 163.5-279.9 167.3-354.2-31.7-18.9-68.7-29.8-108.2-29.8z"/></g></svg>